<svg width="18" height="18" viewBox="0 0 18 18" fill="none" xmlns="http://www.w3.org/2000/svg">
<g clip-path="url(#clip0_119_256)">
<path d="M9.05737 2.24902H9.1575C10.0823 2.2524 14.7679 2.28615 16.0312 2.6259C16.4132 2.72959 16.7612 2.9317 17.0406 3.21203C17.3199 3.49237 17.5208 3.84111 17.6231 4.2234C17.7367 4.6509 17.8166 5.21677 17.8706 5.80065L17.8819 5.91765L17.9066 6.21015L17.9156 6.32715C17.9888 7.3554 17.9977 8.3184 17.9989 8.52877V8.61315C17.9977 8.8314 17.9876 9.85965 17.9066 10.9306L17.8976 11.0488L17.8875 11.1658C17.8312 11.8093 17.748 12.4483 17.6231 12.9185C17.5211 13.301 17.3203 13.6499 17.0409 13.9303C16.7615 14.2106 16.4133 14.4126 16.0312 14.516C14.7262 14.867 9.76612 14.8918 9.07875 14.8929H8.919C8.57137 14.8929 7.13363 14.8861 5.62612 14.8344L5.43488 14.8276L5.337 14.8231L5.14462 14.8153L4.95225 14.8074C3.7035 14.7523 2.51437 14.6634 1.9665 14.5149C1.58455 14.4116 1.23645 14.2098 0.957065 13.9296C0.677682 13.6494 0.476828 13.3008 0.374625 12.9185C0.24975 12.4494 0.1665 11.8093 0.11025 11.1658L0.10125 11.0476L0.09225 10.9306C0.0367285 10.1683 0.00596235 9.40444 0 8.64015L0 8.50177C0.00225 8.2599 0.01125 7.42402 0.072 6.50152L0.079875 6.38565L0.08325 6.32715L0.09225 6.21015L0.117 5.91765L0.12825 5.80065C0.18225 5.21677 0.262125 4.64977 0.37575 4.2234C0.47778 3.84095 0.678558 3.49205 0.957952 3.21167C1.23735 2.93128 1.58554 2.72928 1.96762 2.6259C2.5155 2.47965 3.70462 2.38965 4.95337 2.3334L5.14462 2.32552L5.33812 2.31877L5.43488 2.3154L5.62725 2.30752C6.69792 2.27307 7.76903 2.25394 8.84025 2.25015H9.05737V2.24902ZM7.2 5.86027V11.2805L11.8766 8.57152L7.2 5.86027Z" fill="white"/>
</g>
<defs>
<clipPath id="clip0_119_256">
<rect width="18" height="18" fill="white"/>
</clipPath>
</defs>
</svg>
