<svg width="18" height="18" viewBox="0 0 18 18" fill="none" xmlns="http://www.w3.org/2000/svg">
<g clip-path="url(#clip0_119_250)">
<path d="M17.9995 9.05479C17.9995 4.05304 13.9698 -0.00146484 8.9995 -0.00146484C4.027 -0.000339844 -0.00274658 4.05304 -0.00274658 9.05591C-0.00274658 13.575 3.289 17.3213 7.591 18.0008V11.6727H5.30725V9.05591H7.59325V7.05904C7.59325 4.78991 8.93763 3.53666 10.993 3.53666C11.9785 3.53666 13.0079 3.71329 13.0079 3.71329V5.94079H11.8728C10.7556 5.94079 10.4069 6.63941 10.4069 7.35604V9.05479H12.9021L12.5039 11.6715H10.4058V17.9997C14.7078 17.3202 17.9995 13.5739 17.9995 9.05479Z" fill="white"/>
</g>
<defs>
<clipPath id="clip0_119_250">
<rect width="18" height="18" fill="white"/>
</clipPath>
</defs>
</svg>
