<svg width="18" height="18" viewBox="0 0 18 18" fill="none" xmlns="http://www.w3.org/2000/svg">
<g clip-path="url(#clip0_119_258)">
<path d="M17.4881 7.37785C17.5931 7.98193 17.6454 8.59398 17.6445 9.2071C17.6445 11.9454 16.6658 14.2606 14.9625 15.8277H14.9648C13.4753 17.2036 11.4277 18.0001 9 18.0001C6.61305 18.0001 4.32387 17.0519 2.63604 15.3641C0.948212 13.6762 0 11.3871 0 9.0001C0 6.61316 0.948212 4.32397 2.63604 2.63614C4.32387 0.948317 6.61305 0.000105591 9 0.000105591C11.2342 -0.02606 13.3918 0.813292 15.021 2.34236L12.4515 4.91186C11.5227 4.02645 10.2831 3.5416 9 3.56186C6.65213 3.56186 4.6575 5.14585 3.9465 7.27885C3.56952 8.39655 3.56952 9.60704 3.9465 10.7247H3.94987C4.66425 12.8544 6.6555 14.4384 9.00338 14.4384C10.2161 14.4384 11.2579 14.1279 12.0656 13.5789H12.0623C12.5313 13.2681 12.9325 12.8656 13.2416 12.3956C13.5508 11.9255 13.7616 11.3977 13.8611 10.844H9V7.37898H17.4881V7.37785Z" fill="white"/>
</g>
<defs>
<clipPath id="clip0_119_258">
<rect width="18" height="18" fill="white"/>
</clipPath>
</defs>
</svg>
