<svg width="18" height="18" viewBox="0 0 18 18" fill="none" xmlns="http://www.w3.org/2000/svg">
<path d="M5.65425 16.8753C12.447 16.8753 16.1629 11.2469 16.1629 6.37454C16.1629 6.21704 16.1629 6.05729 16.1561 5.89979C16.8796 5.37609 17.5039 4.72771 18 3.98504C17.3242 4.283 16.6081 4.47937 15.8749 4.56779C16.6472 4.10613 17.2257 3.37976 17.5028 2.52367C16.7771 2.95356 15.9829 3.25534 15.1549 3.41579C14.5982 2.82294 13.8616 2.4302 13.0591 2.29839C12.2566 2.16659 11.4331 2.30308 10.716 2.68672C9.99895 3.07036 9.42841 3.67975 9.09276 4.42048C8.7571 5.16122 8.67508 5.99197 8.85938 6.78404C7.39096 6.71041 5.95442 6.32894 4.64292 5.66438C3.33143 4.99981 2.17427 4.06699 1.2465 2.92642C0.775508 3.73989 0.63177 4.70212 0.844477 5.61772C1.05718 6.53332 1.61039 7.33364 2.39175 7.85617C1.80623 7.83628 1.23359 7.67905 0.72 7.39717V7.44779C0.72101 8.29996 1.01622 9.12564 1.55573 9.78527C2.09525 10.4449 2.84597 10.898 3.681 11.068C3.36405 11.1554 3.03663 11.1989 2.70788 11.1974C2.47611 11.1981 2.2448 11.1766 2.01712 11.1333C2.25313 11.8669 2.71268 12.5082 3.3314 12.9676C3.95012 13.4269 4.69703 13.6813 5.4675 13.6949C4.15862 14.7229 2.54183 15.2805 0.8775 15.2778C0.584236 15.279 0.291176 15.2621 0 15.2272C1.6892 16.3041 3.65096 16.8759 5.65425 16.8753Z" fill="white"/>
</svg>
