<svg width="62" height="36" viewBox="0 0 62 36" fill="none" xmlns="http://www.w3.org/2000/svg">
<path d="M2.852 27.432C2.036 27.432 1.352 27.156 0.8 26.604C0.272 26.052 0.00800003 25.284 0.00800003 24.3C0.00800003 23.292 0.596 20.112 1.772 14.76C2.972 9.384 3.572 5.508 3.572 3.132L3.356 1.548C5.228 0.899999 6.98 0.575999 8.612 0.575999C8.852 0.911999 8.972 1.5 8.972 2.34C8.972 4.26 8.36 7.98 7.136 13.5C5.936 18.996 5.336 22.2 5.336 23.112C5.336 24 5.444 24.444 5.66 24.444L8.18 23.544L8.828 24.804C8.012 25.452 7.016 26.052 5.84 26.604C4.688 27.156 3.692 27.432 2.852 27.432ZM14.6825 27.432C13.0265 27.432 11.7305 26.856 10.7945 25.704C9.8585 24.528 9.3905 22.896 9.3905 20.808C9.3905 18.144 10.0985 15.852 11.5145 13.932C12.9545 12.012 14.9345 11.052 17.4545 11.052L18.7505 11.124C19.1585 10.908 19.6145 10.8 20.1185 10.8C22.0145 10.8 22.9625 12.588 22.9625 16.164C23.9465 16.116 24.9425 15.984 25.9505 15.768L26.5265 15.624L26.7425 17.028C25.9505 17.364 24.8825 17.664 23.5385 17.928L22.8185 18.072C22.3625 20.592 21.4385 22.788 20.0465 24.66C18.6545 26.508 16.8665 27.432 14.6825 27.432ZM16.6265 24.336C17.6345 24.336 18.5345 23.688 19.3265 22.392C20.1425 21.096 20.7065 19.728 21.0185 18.288C18.4505 18.288 17.1665 17.328 17.1665 15.408C17.1665 14.64 17.3225 13.92 17.6345 13.248L17.8145 12.888C17.7185 12.84 17.5985 12.816 17.4545 12.816C17.3105 12.816 17.2025 12.84 17.1305 12.888C16.5305 13.272 15.9665 14.172 15.4385 15.588C14.9105 17.004 14.6465 18.624 14.6465 20.448C14.6465 23.04 15.3065 24.336 16.6265 24.336ZM33.625 33.336C32.737 33.936 31.885 34.368 31.069 34.632C30.253 34.92 29.461 35.064 28.693 35.064C27.925 35.064 27.301 34.848 26.821 34.416C26.341 33.984 26.101 33.36 26.101 32.544C26.101 31.752 26.617 30.996 27.649 30.276C28.681 29.556 29.701 29.064 30.709 28.8L32.257 28.44L32.797 25.56C31.405 26.616 30.061 27.144 28.765 27.144C27.493 27.144 26.449 26.652 25.633 25.668C24.841 24.684 24.445 23.112 24.445 20.952C24.445 18.12 25.081 15.768 26.353 13.896C27.625 12 29.305 11.052 31.393 11.052C32.569 11.052 33.733 11.34 34.885 11.916C36.109 11.484 37.429 11.268 38.845 11.268L39.601 11.304C39.673 11.592 39.709 12 39.709 12.528C39.709 14.64 38.953 19.38 37.441 26.748C37.177 28.26 36.697 29.58 36.001 30.708C35.305 31.86 34.513 32.736 33.625 33.336ZM33.013 13.176C31.981 13.176 31.165 14.016 30.565 15.696C29.965 17.352 29.665 19.2 29.665 21.24C29.665 23.256 30.121 24.264 31.033 24.264C31.633 24.264 32.341 24.036 33.157 23.58C33.829 19.548 34.309 16.224 34.597 13.608C33.925 13.32 33.397 13.176 33.013 13.176ZM27.721 32.472C27.721 32.928 27.985 33.156 28.513 33.156C29.065 33.156 29.665 32.844 30.313 32.22C30.961 31.62 31.477 30.876 31.861 29.988C31.069 30.084 30.181 30.372 29.197 30.852C28.213 31.356 27.721 31.896 27.721 32.472ZM46.0067 27.432C44.3507 27.432 43.0547 26.856 42.1187 25.704C41.1827 24.528 40.7147 22.896 40.7147 20.808C40.7147 18.144 41.4227 15.852 42.8387 13.932C44.2787 12.012 46.2587 11.052 48.7787 11.052L50.0747 11.124C50.4827 10.908 50.9387 10.8 51.4427 10.8C53.3387 10.8 54.2867 12.588 54.2867 16.164C55.2707 16.116 56.2667 15.984 57.2747 15.768L57.8507 15.624L58.0667 17.028C57.2747 17.364 56.2067 17.664 54.8627 17.928L54.1427 18.072C53.6867 20.592 52.7627 22.788 51.3707 24.66C49.9787 26.508 48.1907 27.432 46.0067 27.432ZM47.9507 24.336C48.9587 24.336 49.8587 23.688 50.6507 22.392C51.4667 21.096 52.0307 19.728 52.3427 18.288C49.7747 18.288 48.4907 17.328 48.4907 15.408C48.4907 14.64 48.6467 13.92 48.9587 13.248L49.1387 12.888C49.0427 12.84 48.9227 12.816 48.7787 12.816C48.6347 12.816 48.5267 12.84 48.4547 12.888C47.8547 13.272 47.2907 14.172 46.7627 15.588C46.2347 17.004 45.9707 18.624 45.9707 20.448C45.9707 23.04 46.6307 24.336 47.9507 24.336ZM58.7932 27.432C57.9532 27.432 57.3052 27.18 56.8492 26.676C56.3932 26.172 56.1652 25.5 56.1652 24.66C56.1652 23.82 56.4772 23.1 57.1012 22.5C57.7252 21.876 58.4572 21.564 59.2972 21.564C60.1612 21.564 60.8212 21.816 61.2772 22.32C61.7332 22.8 61.9612 23.46 61.9612 24.3C61.9612 25.116 61.6372 25.848 60.9892 26.496C60.3652 27.12 59.6332 27.432 58.7932 27.432Z" fill="white"/>
</svg>
